<svg width="601" height="338" viewBox="0 0 601 338" fill="none" xmlns="http://www.w3.org/2000/svg">
<rect width="601" height="338" rx="8" transform="matrix(-1 0 0 1 601 0)" fill="#2F2F2F"/>
<path d="M216.415 151.091V186H209.034V151.091H216.415ZM222.351 186V159.818H229.271V164.438H229.578C230.124 162.903 231.033 161.693 232.305 160.807C233.578 159.92 235.101 159.477 236.874 159.477C238.669 159.477 240.197 159.926 241.459 160.824C242.72 161.71 243.561 162.915 243.982 164.438H244.254C244.788 162.938 245.754 161.739 247.152 160.841C248.561 159.932 250.226 159.477 252.146 159.477C254.589 159.477 256.572 160.256 258.095 161.812C259.629 163.358 260.396 165.551 260.396 168.392V186H253.152V169.824C253.152 168.369 252.766 167.278 251.993 166.551C251.22 165.824 250.254 165.46 249.095 165.46C247.777 165.46 246.749 165.881 246.01 166.722C245.271 167.551 244.902 168.648 244.902 170.011V186H237.862V169.67C237.862 168.386 237.493 167.364 236.754 166.602C236.027 165.841 235.067 165.46 233.874 165.46C233.067 165.46 232.339 165.665 231.692 166.074C231.055 166.472 230.55 167.034 230.175 167.761C229.8 168.477 229.612 169.318 229.612 170.284V186H222.351ZM273.598 186.494C271.928 186.494 270.439 186.205 269.132 185.625C267.825 185.034 266.791 184.165 266.03 183.017C265.28 181.858 264.905 180.415 264.905 178.688C264.905 177.233 265.172 176.011 265.706 175.023C266.24 174.034 266.967 173.239 267.888 172.636C268.808 172.034 269.854 171.58 271.024 171.273C272.206 170.966 273.445 170.75 274.74 170.625C276.263 170.466 277.49 170.318 278.422 170.182C279.354 170.034 280.03 169.818 280.45 169.534C280.871 169.25 281.081 168.83 281.081 168.273V168.17C281.081 167.091 280.74 166.256 280.058 165.665C279.388 165.074 278.433 164.778 277.195 164.778C275.888 164.778 274.848 165.068 274.075 165.648C273.303 166.216 272.791 166.932 272.541 167.795L265.825 167.25C266.166 165.659 266.837 164.284 267.837 163.125C268.837 161.955 270.126 161.057 271.706 160.432C273.297 159.795 275.138 159.477 277.229 159.477C278.683 159.477 280.075 159.648 281.405 159.989C282.746 160.33 283.933 160.858 284.967 161.574C286.013 162.29 286.837 163.21 287.439 164.335C288.041 165.449 288.342 166.784 288.342 168.341V186H281.456V182.369H281.251C280.831 183.188 280.268 183.909 279.564 184.534C278.859 185.148 278.013 185.631 277.024 185.983C276.036 186.324 274.893 186.494 273.598 186.494ZM275.678 181.483C276.746 181.483 277.689 181.273 278.507 180.852C279.325 180.42 279.967 179.841 280.433 179.114C280.899 178.386 281.132 177.562 281.132 176.642V173.864C280.905 174.011 280.592 174.148 280.195 174.273C279.808 174.386 279.371 174.494 278.882 174.597C278.393 174.687 277.905 174.773 277.416 174.852C276.928 174.92 276.484 174.983 276.087 175.04C275.234 175.165 274.49 175.364 273.854 175.636C273.217 175.909 272.723 176.278 272.371 176.744C272.018 177.199 271.842 177.767 271.842 178.449C271.842 179.438 272.2 180.193 272.916 180.716C273.643 181.227 274.564 181.483 275.678 181.483ZM305.771 196.364C303.419 196.364 301.402 196.04 299.72 195.392C298.05 194.756 296.72 193.886 295.732 192.784C294.743 191.682 294.101 190.443 293.805 189.068L300.521 188.165C300.726 188.688 301.05 189.176 301.493 189.631C301.936 190.085 302.521 190.449 303.249 190.722C303.987 191.006 304.885 191.148 305.942 191.148C307.521 191.148 308.822 190.761 309.845 189.989C310.879 189.227 311.396 187.949 311.396 186.153V181.364H311.089C310.771 182.091 310.294 182.778 309.658 183.426C309.021 184.074 308.203 184.602 307.203 185.011C306.203 185.42 305.01 185.625 303.624 185.625C301.658 185.625 299.868 185.17 298.254 184.261C296.652 183.341 295.374 181.937 294.419 180.051C293.476 178.153 293.004 175.756 293.004 172.858C293.004 169.892 293.487 167.415 294.453 165.426C295.419 163.437 296.703 161.949 298.305 160.96C299.919 159.972 301.686 159.477 303.607 159.477C305.072 159.477 306.3 159.727 307.288 160.227C308.277 160.716 309.072 161.33 309.675 162.068C310.288 162.795 310.76 163.511 311.089 164.216H311.362V159.818H318.572V186.256C318.572 188.483 318.027 190.347 316.936 191.847C315.845 193.347 314.334 194.472 312.402 195.222C310.482 195.983 308.271 196.364 305.771 196.364ZM305.925 180.17C307.095 180.17 308.084 179.881 308.891 179.301C309.709 178.71 310.334 177.869 310.766 176.778C311.209 175.676 311.43 174.358 311.43 172.824C311.43 171.29 311.214 169.96 310.783 168.835C310.351 167.699 309.726 166.818 308.908 166.193C308.089 165.568 307.095 165.256 305.925 165.256C304.732 165.256 303.726 165.58 302.908 166.227C302.089 166.864 301.47 167.75 301.05 168.886C300.629 170.023 300.419 171.335 300.419 172.824C300.419 174.335 300.629 175.642 301.05 176.744C301.482 177.835 302.101 178.682 302.908 179.284C303.726 179.875 304.732 180.17 305.925 180.17ZM336.283 186.511C333.589 186.511 331.271 185.966 329.328 184.875C327.396 183.773 325.908 182.216 324.862 180.205C323.817 178.182 323.294 175.79 323.294 173.028C323.294 170.335 323.817 167.972 324.862 165.938C325.908 163.903 327.379 162.318 329.277 161.182C331.186 160.045 333.425 159.477 335.993 159.477C337.72 159.477 339.328 159.756 340.817 160.312C342.317 160.858 343.624 161.682 344.737 162.784C345.862 163.886 346.737 165.273 347.362 166.943C347.987 168.602 348.3 170.545 348.3 172.773V174.767H326.192V170.267H341.464C341.464 169.222 341.237 168.295 340.783 167.489C340.328 166.682 339.697 166.051 338.891 165.597C338.095 165.131 337.169 164.898 336.112 164.898C335.01 164.898 334.033 165.153 333.18 165.665C332.339 166.165 331.68 166.841 331.203 167.693C330.726 168.534 330.482 169.472 330.47 170.506V174.784C330.47 176.08 330.709 177.199 331.186 178.142C331.675 179.085 332.362 179.812 333.249 180.324C334.135 180.835 335.186 181.091 336.402 181.091C337.209 181.091 337.947 180.977 338.618 180.75C339.288 180.523 339.862 180.182 340.339 179.727C340.817 179.273 341.18 178.716 341.43 178.057L348.146 178.5C347.805 180.114 347.107 181.523 346.05 182.727C345.004 183.92 343.652 184.852 341.993 185.523C340.345 186.182 338.442 186.511 336.283 186.511ZM390.376 151.091V186H382.996V158.097H382.791L374.797 163.108V156.562L383.439 151.091H390.376Z" fill="white"/>
</svg>
