<svg width="25" height="25" viewBox="0 0 25 25" fill="none" xmlns="http://www.w3.org/2000/svg">
<path fill-rule="evenodd" clip-rule="evenodd" d="M15.625 2.34375C15.625 2.13655 15.5427 1.93784 15.3962 1.79132C15.2497 1.64481 15.051 1.5625 14.8438 1.5625H10.1562C9.94905 1.5625 9.75034 1.64481 9.60382 1.79132C9.45731 1.93784 9.375 2.13655 9.375 2.34375V3.90625C9.375 4.11345 9.45731 4.31216 9.60382 4.45868C9.75034 4.60519 9.94905 4.6875 10.1562 4.6875H14.8438C15.051 4.6875 15.2497 4.60519 15.3962 4.45868C15.5427 4.31216 15.625 4.11345 15.625 3.90625V2.34375ZM7.8125 2.34375C7.8125 1.72215 8.05943 1.12601 8.49897 0.686468C8.93851 0.24693 9.53465 0 10.1562 0L14.8438 0C15.4654 0 16.0615 0.24693 16.501 0.686468C16.9406 1.12601 17.1875 1.72215 17.1875 2.34375V3.90625C17.1875 4.52785 16.9406 5.12399 16.501 5.56353C16.0615 6.00307 15.4654 6.25 14.8438 6.25H10.1562C9.53465 6.25 8.93851 6.00307 8.49897 5.56353C8.05943 5.12399 7.8125 4.52785 7.8125 3.90625V2.34375ZM4.6875 2.34375H6.25V3.90625C6.25 4.94225 6.66155 5.93582 7.39411 6.66839C8.12668 7.40095 9.12025 7.8125 10.1562 7.8125H14.8438C15.3567 7.8125 15.8647 7.71146 16.3386 7.51515C16.8125 7.31885 17.2432 7.03111 17.6059 6.66839C17.9686 6.30566 18.2563 5.87504 18.4527 5.40111C18.649 4.92718 18.75 4.41923 18.75 3.90625V2.34375H20.3125C21.1413 2.34375 21.9362 2.67299 22.5222 3.25904C23.1083 3.84509 23.4375 4.63995 23.4375 5.46875V21.875C23.4375 22.7038 23.1083 23.4987 22.5222 24.0847C21.9362 24.6708 21.1413 25 20.3125 25H4.6875C3.8587 25 3.06384 24.6708 2.47779 24.0847C1.89174 23.4987 1.5625 22.7038 1.5625 21.875V5.46875C1.5625 4.63995 1.89174 3.84509 2.47779 3.25904C3.06384 2.67299 3.8587 2.34375 4.6875 2.34375Z" fill="#D9D9D9"/>
</svg>
