<svg width="25" height="25" viewBox="0 0 19 18" fill="none" xmlns="http://www.w3.org/2000/svg">
<g clip-path="url(#clip0_35_147)">
<path d="M10.1116 1.14638C9.90805 1.13214 9.70406 1.12501 9.5 1.125V0C9.73339 0.000107806 9.96669 0.00836341 10.1994 0.02475L10.1116 1.14638ZM12.4913 1.65262C12.1107 1.51347 11.7197 1.40104 11.3216 1.31625L11.5817 0.21825C12.0365 0.315 12.4842 0.44325 12.9188 0.603L12.4913 1.65262ZM14.1182 2.45138C13.9484 2.34411 13.7745 2.24279 13.5969 2.14762L14.1823 1.16887C14.5883 1.38683 14.9769 1.63274 15.3449 1.90462L14.6146 2.79225C14.4536 2.67326 14.288 2.55993 14.1182 2.4525V2.45138ZM16.2961 4.46513C16.0612 4.14897 15.802 3.84966 15.5206 3.56963L16.3804 2.79338C16.701 3.114 16.9979 3.45712 17.2674 3.81712L16.2961 4.46513ZM17.1796 5.98612C17.1016 5.80777 17.0169 5.63215 16.9254 5.45963L17.9859 4.95337C18.1956 5.34835 18.3742 5.75746 18.5202 6.17738L17.3921 6.5295C17.3283 6.34597 17.2574 6.16473 17.1796 5.98612ZM17.8089 8.8065C17.7993 8.41988 17.7596 8.03446 17.6902 7.65338L18.8599 7.46212C18.9394 7.89637 18.9857 8.33737 18.9976 8.77837L17.8101 8.8065H17.8089ZM17.6534 10.5367C17.6926 10.3455 17.7246 10.1554 17.7496 9.963L18.9287 10.1014C18.8717 10.5403 18.7804 10.9746 18.6556 11.4008L17.5109 11.1004C17.5655 10.9147 17.613 10.7269 17.6534 10.5367ZM16.5229 13.2131C16.7414 12.8869 16.9337 12.5449 17.1 12.1916L18.1854 12.6472C17.9954 13.0522 17.7757 13.4415 17.5263 13.815L16.5229 13.2131ZM15.3781 14.5687C15.523 14.4315 15.6619 14.2897 15.7937 14.1435L16.6939 14.8781C16.5414 15.0456 16.3826 15.2077 16.2177 15.3641L15.3781 14.5687Z" fill="#D9D9D9"/>
<path d="M9.50005 1.125C8.13309 1.12509 6.78726 1.44455 5.58175 2.05508C4.37624 2.66561 3.34826 3.54836 2.58887 4.62516C1.82947 5.70195 1.3621 6.93954 1.22815 8.22832C1.0942 9.5171 1.29781 10.8173 1.82093 12.0137C2.34406 13.2101 3.17056 14.2659 4.22722 15.0874C5.28389 15.909 6.53811 16.471 7.87879 16.7237C9.21948 16.9763 10.6052 16.9119 11.9134 16.536C13.2215 16.1601 14.4115 15.4844 15.3782 14.5687L16.2177 15.3641C15.113 16.4112 13.7528 17.1841 12.2575 17.6141C10.7622 18.0442 9.17796 18.1182 7.64525 17.8295C6.11253 17.5409 4.67863 16.8986 3.47057 15.9595C2.26252 15.0204 1.31762 13.8135 0.719594 12.4458C0.121569 11.078 -0.111119 9.59161 0.0421491 8.1183C0.195417 6.64499 0.729908 5.23024 1.59826 3.9994C2.46662 2.76855 3.64203 1.75962 5.02035 1.062C6.39868 0.364382 7.93735 -0.000392324 9.50005 3.1664e-07V1.125Z" fill="#D9D9D9"/>
<path d="M8.90625 3.375C9.06372 3.375 9.21474 3.43426 9.32609 3.53975C9.43744 3.64524 9.5 3.78832 9.5 3.9375V9.79875L13.357 11.8867C13.4898 11.9626 13.5859 12.0847 13.6249 12.2268C13.664 12.369 13.6427 12.5199 13.5658 12.6475C13.4889 12.775 13.3624 12.869 13.2133 12.9093C13.0642 12.9496 12.9044 12.9331 12.768 12.8632L8.61175 10.6132C8.52087 10.5641 8.44533 10.493 8.39278 10.4073C8.34023 10.3215 8.31253 10.2241 8.3125 10.125V3.9375C8.3125 3.78832 8.37506 3.64524 8.48641 3.53975C8.59776 3.43426 8.74878 3.375 8.90625 3.375Z" fill="#D9D9D9"/>
</g>
<defs>
<clipPath id="clip0_35_147">
<rect width="25" height="25" fill="white"/>
</clipPath>
</defs>
</svg>
