<svg width="25" height="25" viewBox="0 0 25 25" fill="none" xmlns="http://www.w3.org/2000/svg">
<path d="M0 6.25C0 5.4212 0.32924 4.62634 0.915291 4.04029C1.50134 3.45424 2.2962 3.125 3.125 3.125H21.875C22.7038 3.125 23.4987 3.45424 24.0847 4.04029C24.6708 4.62634 25 5.4212 25 6.25V14.0625H0V6.25ZM17.9688 7.8125C17.7615 7.8125 17.5628 7.89481 17.4163 8.04132C17.2698 8.18784 17.1875 8.38655 17.1875 8.59375V10.1562C17.1875 10.3635 17.2698 10.5622 17.4163 10.7087C17.5628 10.8552 17.7615 10.9375 17.9688 10.9375H21.0938C21.301 10.9375 21.4997 10.8552 21.6462 10.7087C21.7927 10.5622 21.875 10.3635 21.875 10.1562V8.59375C21.875 8.38655 21.7927 8.18784 21.6462 8.04132C21.4997 7.89481 21.301 7.8125 21.0938 7.8125H17.9688ZM0 17.1875V18.75C0 19.5788 0.32924 20.3737 0.915291 20.9597C1.50134 21.5458 2.2962 21.875 3.125 21.875H21.875C22.7038 21.875 23.4987 21.5458 24.0847 20.9597C24.6708 20.3737 25 19.5788 25 18.75V17.1875H0Z" fill="#D9D9D9"/>
</svg>
