<svg width="25" height="25" viewBox="0 0 25 25" fill="none" xmlns="http://www.w3.org/2000/svg">
<path d="M24.2219 3.03138C24.3679 3.17782 24.4498 3.37616 24.4498 3.58294C24.4498 3.78972 24.3679 3.98806 24.2219 4.1345L22.5922 5.76575L19.4672 2.64075L21.0969 1.0095C21.2434 0.863039 21.4421 0.780762 21.6492 0.780762C21.8564 0.780762 22.0551 0.863039 22.2016 1.0095L24.2219 3.02981V3.03138ZM21.4875 6.86888L18.3625 3.74388L7.71719 14.3908C7.63119 14.4767 7.56645 14.5816 7.52812 14.697L6.27031 18.4689C6.2475 18.5376 6.24426 18.6114 6.26096 18.6819C6.27765 18.7524 6.31363 18.8169 6.36485 18.8681C6.41608 18.9193 6.48055 18.9553 6.55105 18.972C6.62155 18.9887 6.6953 18.9854 6.76406 18.9626L10.5359 17.7048C10.6512 17.6669 10.756 17.6027 10.8422 17.5173L21.4875 6.86888Z" fill="#D9D9D9"/>
<path fill-rule="evenodd" clip-rule="evenodd" d="M1.5625 21.0938C1.5625 21.7154 1.80943 22.3115 2.24897 22.751C2.68851 23.1906 3.28465 23.4375 3.90625 23.4375H21.0938C21.7154 23.4375 22.3115 23.1906 22.751 22.751C23.1906 22.3115 23.4375 21.7154 23.4375 21.0938V11.7188C23.4375 11.5115 23.3552 11.3128 23.2087 11.1663C23.0622 11.0198 22.8635 10.9375 22.6562 10.9375C22.449 10.9375 22.2503 11.0198 22.1038 11.1663C21.9573 11.3128 21.875 11.5115 21.875 11.7188V21.0938C21.875 21.301 21.7927 21.4997 21.6462 21.6462C21.4997 21.7927 21.301 21.875 21.0938 21.875H3.90625C3.69905 21.875 3.50034 21.7927 3.35382 21.6462C3.20731 21.4997 3.125 21.301 3.125 21.0938V3.90625C3.125 3.69905 3.20731 3.50034 3.35382 3.35382C3.50034 3.20731 3.69905 3.125 3.90625 3.125H14.0625C14.2697 3.125 14.4684 3.04269 14.6149 2.89618C14.7614 2.74966 14.8438 2.55095 14.8438 2.34375C14.8438 2.13655 14.7614 1.93784 14.6149 1.79132C14.4684 1.64481 14.2697 1.5625 14.0625 1.5625H3.90625C3.28465 1.5625 2.68851 1.80943 2.24897 2.24897C1.80943 2.68851 1.5625 3.28465 1.5625 3.90625V21.0938Z" fill="#D9D9D9"/>
</svg>
