<svg width="25" height="25" viewBox="0 0 19 18" fill="none" xmlns="http://www.w3.org/2000/svg">
<g clip-path="url(#clip0_35_137)">
<path d="M9.5 18C9.5 18 16.625 11.6033 16.625 6.75C16.625 4.95979 15.8743 3.2429 14.5381 1.97703C13.2019 0.711159 11.3897 0 9.5 0C7.61033 0 5.79806 0.711159 4.46186 1.97703C3.12567 3.2429 2.375 4.95979 2.375 6.75C2.375 11.6033 9.5 18 9.5 18ZM9.5 10.125C8.55517 10.125 7.64903 9.76942 6.98093 9.13649C6.31283 8.50355 5.9375 7.64511 5.9375 6.75C5.9375 5.85489 6.31283 4.99645 6.98093 4.36351C7.64903 3.73058 8.55517 3.375 9.5 3.375C10.4448 3.375 11.351 3.73058 12.0191 4.36351C12.6872 4.99645 13.0625 5.85489 13.0625 6.75C13.0625 7.64511 12.6872 8.50355 12.0191 9.13649C11.351 9.76942 10.4448 10.125 9.5 10.125Z" fill="#D9D9D9"/>
</g>
<defs>
<clipPath id="clip0_35_137">
<rect width="25" height="25" fill="white"/>
</clipPath>
</defs>
</svg>
