<svg width="25" height="25" viewBox="0 0 25 25" fill="none" xmlns="http://www.w3.org/2000/svg">
<path d="M13.6047 2.34377C13.3117 2.05085 12.9143 1.88629 12.5 1.88629C12.0857 1.88629 11.6883 2.05085 11.3953 2.34377L1.00939 12.7281C0.936748 12.8008 0.879129 12.887 0.839818 12.9819C0.800507 13.0768 0.780273 13.1785 0.780273 13.2813C0.780273 13.384 0.800507 13.4857 0.839818 13.5806C0.879129 13.6755 0.936748 13.7618 1.00939 13.8344C1.15608 13.9811 1.35505 14.0635 1.56251 14.0635C1.66524 14.0635 1.76695 14.0433 1.86186 14.004C1.95676 13.9647 2.043 13.907 2.11564 13.8344L12.5 3.44846L22.8844 13.8344C23.0311 13.9811 23.23 14.0635 23.4375 14.0635C23.645 14.0635 23.8439 13.9811 23.9906 13.8344C24.1373 13.6877 24.2197 13.4887 24.2197 13.2813C24.2197 13.0738 24.1373 12.8748 23.9906 12.7281L20.3125 9.05158V3.90627C20.3125 3.69907 20.2302 3.50036 20.0837 3.35384C19.9372 3.20733 19.7385 3.12502 19.5313 3.12502H17.9688C17.7616 3.12502 17.5628 3.20733 17.4163 3.35384C17.2698 3.50036 17.1875 3.69907 17.1875 3.90627V5.92658L13.6047 2.34377Z" fill="#D9D9D9"/>
<path d="M12.5 5.14532L21.875 14.5203V21.0938C21.875 21.7154 21.6281 22.3115 21.1885 22.751C20.749 23.1906 20.1529 23.4375 19.5312 23.4375H5.46875C4.84715 23.4375 4.25101 23.1906 3.81147 22.751C3.37193 22.3115 3.125 21.7154 3.125 21.0938V14.5203L12.5 5.14532Z" fill="#D9D9D9"/>
</svg>
