<svg width="17" height="17" viewBox="0 0 17 17" fill="none" xmlns="http://www.w3.org/2000/svg">
<path d="M13.2812 17C14.2675 17 15.2134 16.6082 15.9108 15.9108C16.6082 15.2134 17 14.2675 17 13.2812C17 12.295 16.6082 11.3491 15.9108 10.6517C15.2134 9.9543 14.2675 9.5625 13.2812 9.5625C12.295 9.5625 11.3491 9.9543 10.6517 10.6517C9.9543 11.3491 9.5625 12.295 9.5625 13.2812C9.5625 14.2675 9.9543 15.2134 10.6517 15.9108C11.3491 16.6082 12.295 17 13.2812 17ZM11.6875 12.75H14.875C15.0159 12.75 15.151 12.806 15.2507 12.9056C15.3503 13.0052 15.4062 13.1404 15.4062 13.2812C15.4062 13.4221 15.3503 13.5573 15.2507 13.6569C15.151 13.7565 15.0159 13.8125 14.875 13.8125H11.6875C11.5466 13.8125 11.4115 13.7565 11.3118 13.6569C11.2122 13.5573 11.1562 13.4221 11.1562 13.2812C11.1562 13.1404 11.2122 13.0052 11.3118 12.9056C11.4115 12.806 11.5466 12.75 11.6875 12.75ZM11.6875 5.3125C11.6875 6.15788 11.3517 6.96863 10.7539 7.5664C10.1561 8.16418 9.34538 8.5 8.5 8.5C7.65462 8.5 6.84387 8.16418 6.2461 7.5664C5.64833 6.96863 5.3125 6.15788 5.3125 5.3125C5.3125 4.46712 5.64833 3.65637 6.2461 3.0586C6.84387 2.46083 7.65462 2.125 8.5 2.125C9.34538 2.125 10.1561 2.46083 10.7539 3.0586C11.3517 3.65637 11.6875 4.46712 11.6875 5.3125Z" fill="#D9D9D9"/>
<path d="M2.125 13.8125C2.125 14.875 3.1875 14.875 3.1875 14.875H8.772C8.59138 14.3631 8.49939 13.8241 8.5 13.2812C8.4993 12.5979 8.64541 11.9224 8.92844 11.3004C9.21147 10.6785 9.62481 10.1245 10.1405 9.67619C9.64431 9.60288 9.09925 9.5625 8.5 9.5625C3.1875 9.5625 2.125 12.75 2.125 13.8125Z" fill="#D9D9D9"/>
</svg>
