<svg width="50" height="50" viewBox="0 0 103 106" fill="none" xmlns="http://www.w3.org/2000/svg">
<path fill-rule="evenodd" clip-rule="evenodd" d="M16.0938 79.5C16.0938 78.6215 16.4329 77.7789 17.0365 77.1577C17.6401 76.5365 18.4588 76.1875 19.3125 76.1875H83.6875C84.5412 76.1875 85.3599 76.5365 85.9635 77.1577C86.5671 77.7789 86.9062 78.6215 86.9062 79.5C86.9062 80.3785 86.5671 81.2211 85.9635 81.8423C85.3599 82.4635 84.5412 82.8125 83.6875 82.8125H19.3125C18.4588 82.8125 17.6401 82.4635 17.0365 81.8423C16.4329 81.2211 16.0938 80.3785 16.0938 79.5ZM16.0938 53C16.0938 52.1215 16.4329 51.2789 17.0365 50.6577C17.6401 50.0365 18.4588 49.6875 19.3125 49.6875H83.6875C84.5412 49.6875 85.3599 50.0365 85.9635 50.6577C86.5671 51.2789 86.9062 52.1215 86.9062 53C86.9062 53.8785 86.5671 54.7211 85.9635 55.3423C85.3599 55.9635 84.5412 56.3125 83.6875 56.3125H19.3125C18.4588 56.3125 17.6401 55.9635 17.0365 55.3423C16.4329 54.7211 16.0938 53.8785 16.0938 53ZM16.0938 26.5C16.0938 25.6215 16.4329 24.7789 17.0365 24.1577C17.6401 23.5365 18.4588 23.1875 19.3125 23.1875H83.6875C84.5412 23.1875 85.3599 23.5365 85.9635 24.1577C86.5671 24.7789 86.9062 25.6215 86.9062 26.5C86.9062 27.3785 86.5671 28.2211 85.9635 28.8423C85.3599 29.4635 84.5412 29.8125 83.6875 29.8125H19.3125C18.4588 29.8125 17.6401 29.4635 17.0365 28.8423C16.4329 28.2211 16.0938 27.3785 16.0938 26.5Z" fill="#D9D9D9"/>
</svg>
