<svg width="25" height="21" viewBox="0 0 25 21" fill="none" xmlns="http://www.w3.org/2000/svg">
<path d="M4.5625 18.75C4.5625 18.75 3 18.75 3 17.4375C3 16.125 4.5625 12.1875 12.375 12.1875C20.1875 12.1875 21.75 16.125 21.75 17.4375C21.75 18.75 20.1875 18.75 20.1875 18.75H4.5625ZM12.375 10.875C13.6182 10.875 14.8105 10.4602 15.6896 9.72173C16.5686 8.98331 17.0625 7.98179 17.0625 6.9375C17.0625 5.89321 16.5686 4.89169 15.6896 4.15327C14.8105 3.41484 13.6182 3 12.375 3C11.1318 3 9.93951 3.41484 9.06044 4.15327C8.18136 4.89169 7.6875 5.89321 7.6875 6.9375C7.6875 7.98179 8.18136 8.98331 9.06044 9.72173C9.93951 10.4602 11.1318 10.875 12.375 10.875Z" fill="#D9D9D9"/>
</svg>
