<svg width="80" height="80" viewBox="0 0 80 80" fill="#1F1F1F" xmlns="http://www.w3.org/2000/svg">
<path d="M23.23 23.23C23.4622 22.9971 23.7381 22.8124 24.0418 22.6864C24.3455 22.5604 24.6711 22.4955 25 22.4955C25.3288 22.4955 25.6544 22.5604 25.9581 22.6864C26.2618 22.8124 26.5377 22.9971 26.77 23.23L40 36.465L53.2299 23.23C53.4624 22.9975 53.7383 22.8131 54.042 22.6873C54.3457 22.5615 54.6712 22.4968 55 22.4968C55.3287 22.4968 55.6542 22.5615 55.9579 22.6873C56.2616 22.8131 56.5375 22.9975 56.77 23.23C57.0024 23.4624 57.1868 23.7383 57.3126 24.042C57.4384 24.3457 57.5031 24.6712 57.5031 25C57.5031 25.3287 57.4384 25.6542 57.3126 25.9579C57.1868 26.2616 57.0024 26.5375 56.77 26.77L43.535 40L56.77 53.2299C57.0024 53.4624 57.1868 53.7383 57.3126 54.042C57.4384 54.3457 57.5031 54.6712 57.5031 55C57.5031 55.3287 57.4384 55.6542 57.3126 55.9579C57.1868 56.2616 57.0024 56.5375 56.77 56.77C56.5375 57.0024 56.2616 57.1868 55.9579 57.3126C55.6542 57.4384 55.3287 57.5031 55 57.5031C54.6712 57.5031 54.3457 57.4384 54.042 57.3126C53.7383 57.1868 53.4624 57.0024 53.2299 56.77L40 43.535L26.77 56.77C26.5375 57.0024 26.2616 57.1868 25.9579 57.3126C25.6542 57.4384 25.3287 57.5031 25 57.5031C24.6712 57.5031 24.3457 57.4384 24.042 57.3126C23.7383 57.1868 23.4624 57.0024 23.23 56.77C22.9975 56.5375 22.8131 56.2616 22.6873 55.9579C22.5615 55.6542 22.4968 55.3287 22.4968 55C22.4968 54.6712 22.5615 54.3457 22.6873 54.042C22.8131 53.7383 22.9975 53.4624 23.23 53.2299L36.465 40L23.23 26.77C22.9971 26.5377 22.8124 26.2618 22.6864 25.9581C22.5604 25.6544 22.4955 25.3288 22.4955 25C22.4955 24.6711 22.5604 24.3455 22.6864 24.0418C22.8124 23.7381 22.9971 23.4622 23.23 23.23Z" fill="#1F1F1F"/>
</svg>
