<?xml version="1.0" standalone="no"?>
<!DOCTYPE svg PUBLIC "-//W3C//DTD SVG 20010904//EN"
 "http://www.w3.org/TR/2001/REC-SVG-20010904/DTD/svg10.dtd">
<svg version="1.0" xmlns="http://www.w3.org/2000/svg"
 width="2000.000000pt" height="1500.000000pt" viewBox="0 0 2000.000000 1500.000000"
 preserveAspectRatio="xMidYMid meet">

<g transform="translate(0.000000,1500.000000) scale(0.100000,-0.100000)"
fill="#000000" stroke="none">
<path d="M0 7500 l0 -7500 10000 0 10000 0 0 7500 0 7500 -10000 0 -10000 0 0
-7500z m9714 4913 c3 -43 13 -220 21 -393 9 -173 18 -339 21 -369 l6 -54 126
7 c70 3 175 9 234 12 l106 7 7 -47 c4 -26 6 -49 4 -50 -6 -6 -592 -37 -597
-32 -7 8 -55 963 -49 980 5 12 20 16 61 16 l54 0 6 -77z m1381 -26 c154 -71
237 -232 221 -432 -25 -319 -148 -507 -357 -546 -134 -24 -292 34 -372 137
-65 85 -81 141 -82 284 0 253 84 456 222 537 78 46 111 53 213 50 78 -2 105
-8 155 -30z m-2336 -514 c61 -226 111 -414 111 -417 0 -12 42 -3 248 53 238
65 217 66 236 -11 6 -25 3 -28 -31 -38 -21 -5 -152 -41 -291 -78 l-252 -69
-11 41 c-6 23 -65 239 -130 480 -65 242 -118 440 -116 441 1 1 27 9 57 17 39
11 57 12 61 4 4 -6 57 -196 118 -423z m3171 262 c28 -14 50 -30 50 -35 0 -20
-170 -687 -189 -742 -11 -32 -17 -58 -13 -57 4 0 25 21 46 47 21 26 149 165
283 309 l243 263 45 -22 c25 -12 45 -28 45 -36 0 -18 -137 -691 -155 -762 -8
-30 -13 -55 -12 -57 2 -1 21 21 42 50 21 28 140 174 263 324 l225 271 54 -26
c29 -14 53 -29 53 -32 0 -5 -604 -714 -651 -764 -11 -12 -109 32 -109 49 0 11
142 726 155 780 7 26 -4 17 -71 -55 -92 -99 -412 -439 -460 -489 l-33 -35 -51
24 c-27 13 -50 28 -50 35 0 6 47 208 105 450 58 242 110 461 116 488 6 26 13
47 15 47 3 0 27 -11 54 -25z m-3968 -211 c59 -19 153 -87 196 -141 50 -64 110
-176 138 -260 23 -67 26 -90 22 -163 -10 -175 -90 -273 -328 -403 -109 -60
-145 -75 -151 -65 -31 48 -470 860 -468 862 2 2 72 40 156 85 206 112 297 129
435 85z m5818 -1023 c0 -3 -14 -21 -31 -39 -26 -29 -32 -32 -47 -20 -9 7 -92
82 -186 165 -93 84 -170 152 -171 150 -1 -1 -44 -49 -96 -107 -52 -58 -100
-112 -107 -121 -11 -15 6 -33 135 -149 81 -73 153 -138 160 -144 9 -8 5 -20
-21 -50 l-32 -39 -158 141 c-86 78 -161 142 -166 142 -11 0 -235 -248 -235
-260 0 -5 81 -82 180 -170 99 -89 181 -164 183 -169 1 -4 -13 -22 -32 -40
l-34 -33 -231 208 c-127 114 -230 211 -229 215 2 4 151 171 331 372 l329 366
229 -206 c126 -113 229 -209 229 -212z m-6796 366 c165 -60 361 -266 416 -438
46 -143 11 -277 -101 -384 -103 -99 -222 -133 -347 -101 -120 30 -203 87 -319
219 -187 211 -210 430 -61 592 115 126 263 166 412 112z m7241 -934 c60 -86
119 -181 132 -212 29 -72 31 -168 4 -228 -41 -89 -150 -164 -251 -171 -52 -4
-76 2 -173 43 -15 6 -33 -24 -122 -209 -58 -119 -107 -216 -110 -216 -3 0 -21
24 -40 54 l-36 54 103 205 102 206 -64 95 c-36 53 -69 96 -73 96 -4 0 -79 -49
-166 -110 -87 -60 -161 -110 -164 -110 -3 0 -21 22 -40 49 l-35 48 402 281
c220 154 406 281 411 281 6 1 60 -69 120 -156z m-4014 87 c578 -45 1099 -241
1553 -584 1119 -847 1480 -2360 866 -3621 -706 -1447 -2456 -2052 -3905 -1350
-1327 644 -1968 2170 -1499 3571 420 1257 1667 2086 2985 1984z m-4053 -75
c114 -27 288 -129 378 -221 31 -31 68 -85 89 -128 33 -65 37 -84 38 -149 1
-127 -60 -248 -161 -322 -143 -105 -331 -93 -539 37 -305 190 -376 465 -175
680 96 103 222 138 370 103z m-796 -951 l46 -15 -77 -230 c-42 -127 -73 -233
-69 -235 14 -9 301 -104 313 -104 6 0 39 84 74 188 35 103 67 190 70 194 9 10
82 -13 87 -27 3 -6 -25 -96 -61 -200 -36 -104 -65 -189 -65 -191 0 -1 94 -34
209 -74 l209 -72 -20 -58 -19 -59 -462 156 c-254 85 -466 159 -471 163 -6 6
180 580 189 580 1 0 22 -7 47 -16z m9315 -13 c124 -63 203 -204 203 -360 -1
-86 -15 -135 -55 -187 -25 -32 -100 -94 -114 -94 -3 0 -16 26 -28 57 -20 51
-21 58 -7 66 39 22 84 71 95 104 28 85 -19 228 -94 287 -72 58 -182 33 -218
-49 -17 -39 -19 -66 -18 -237 2 -176 0 -198 -20 -250 -24 -62 -76 -117 -138
-144 -56 -24 -149 -22 -201 5 -174 90 -265 374 -175 550 27 53 99 121 127 121
7 0 22 -25 33 -55 l20 -54 -37 -25 c-96 -63 -102 -223 -13 -357 50 -76 137
-101 213 -60 69 36 75 60 75 291 0 230 7 265 63 330 74 87 190 112 289 61z
m-9084 -1951 c57 -45 53 -144 -6 -180 -88 -54 -192 14 -173 114 14 76 118 114
179 66z m9037 -9 c33 -32 45 -69 36 -106 -26 -101 -172 -114 -213 -17 -32 76
20 152 104 152 36 0 50 -6 73 -29z m-8328 -1653 c-5 -5 -22 -10 -37 -11 -28
-2 -29 -1 -85 173 -49 152 -59 175 -76 172 -17 -3 -235 -72 -241 -77 -2 -1 79
-263 93 -299 4 -9 -7 -18 -31 -26 -20 -7 -37 -10 -39 -8 -1 1 -24 71 -50 153
-27 83 -50 151 -51 153 -2 2 -74 -19 -160 -47 -86 -28 -160 -51 -164 -51 -9 0
-34 80 -27 87 2 3 168 58 368 122 l363 117 73 -224 c45 -136 70 -228 64 -234z
m7805 396 c20 -6 21 -7 7 -49 l-15 -42 -52 1 c-40 0 -61 -5 -86 -23 -45 -32
-81 -111 -81 -179 0 -48 4 -58 34 -88 27 -27 42 -34 73 -34 56 0 92 27 178
134 117 146 186 182 289 152 158 -46 188 -249 63 -424 -57 -80 -156 -125 -235
-107 l-31 6 17 45 c15 41 20 45 47 43 58 -4 75 1 110 33 41 35 69 85 85 149
30 120 -84 212 -181 146 -18 -12 -69 -66 -112 -120 -99 -124 -155 -160 -239
-154 -113 7 -180 86 -179 211 0 92 32 168 95 231 64 64 139 89 213 69z m-7765
-556 c57 -24 121 -91 150 -156 30 -67 30 -171 1 -235 -31 -67 -115 -146 -209
-194 -100 -52 -172 -73 -249 -73 -124 0 -211 54 -266 166 -77 155 -18 316 152
420 165 100 302 123 421 72z m7578 -46 c69 -35 109 -94 117 -176 l6 -56 188 0
189 0 -22 -45 -22 -45 -182 0 -183 0 -45 -81 c-25 -45 -46 -82 -46 -84 0 -1
60 -35 133 -75 72 -40 134 -74 136 -76 6 -6 -31 -84 -39 -84 -8 0 -661 358
-672 368 -10 10 123 249 167 300 84 97 159 112 275 54z m-441 -442 l24 -20
-118 -156 c-64 -85 -115 -157 -113 -160 3 -2 49 -38 104 -78 l98 -74 42 54
c23 29 68 89 100 133 33 44 61 80 64 81 3 0 18 -10 33 -23 l29 -22 -101 -132
c-56 -72 -101 -134 -101 -137 0 -8 211 -166 221 -166 5 0 59 67 121 149 62 83
118 150 123 150 20 1 57 -38 49 -51 -5 -7 -70 -95 -147 -195 -89 -118 -143
-181 -150 -176 -13 7 -586 441 -601 454 -10 9 273 389 289 389 6 -1 21 -10 34
-20z m-6754 -124 c65 -30 138 -111 160 -177 50 -151 -23 -300 -208 -423 -100
-66 -162 -88 -247 -89 -110 0 -193 51 -257 160 -25 43 -28 57 -28 138 0 75 4
97 24 134 50 96 201 221 314 262 76 27 178 25 242 -5z m6470 -430 c85 -41 84
-41 46 -80 l-33 -34 -33 19 c-83 49 -148 43 -217 -19 -74 -66 -88 -153 -43
-251 34 -72 183 -223 251 -252 106 -47 203 -18 265 78 37 60 38 111 3 173
l-26 45 31 27 c17 16 36 28 42 28 5 0 22 -26 36 -57 51 -111 28 -219 -67 -313
-67 -67 -110 -85 -205 -85 -111 0 -172 31 -286 144 -179 180 -208 351 -83 490
98 109 210 139 319 87z m-6002 -86 c124 -130 142 -167 142 -285 0 -117 -27
-175 -129 -278 -103 -104 -162 -132 -281 -132 -80 0 -96 3 -141 28 -52 29
-244 201 -244 218 0 15 531 549 546 549 6 0 55 -45 107 -100z m5655 -590 l214
-313 -33 -28 c-19 -16 -38 -29 -44 -29 -5 0 -156 61 -334 135 -179 74 -326
133 -329 131 -2 -3 67 -109 155 -237 87 -128 161 -239 166 -245 8 -14 -60 -67
-74 -59 -11 7 -429 622 -429 632 0 10 62 53 76 53 5 0 151 -59 324 -131 173
-72 321 -134 329 -137 24 -9 11 12 -154 253 -86 127 -159 235 -161 240 -4 11
56 55 70 51 5 -1 106 -143 224 -316z m-4953 24 c136 -87 177 -124 202 -181 26
-63 8 -140 -46 -194 -37 -38 -107 -65 -142 -56 -23 6 -23 3 -3 -28 59 -91 14
-234 -90 -284 -61 -30 -128 -27 -201 8 -48 22 -256 149 -272 165 -3 3 67 116
384 619 13 20 26 37 29 37 3 0 65 -39 139 -86z m4198 -101 c2 -10 8 -25 11
-34 5 -12 -29 -33 -164 -98 -93 -45 -170 -88 -169 -94 0 -7 24 -61 52 -120
l52 -108 153 75 153 75 16 -34 c9 -19 15 -36 12 -38 -2 -2 -70 -36 -151 -75
l-148 -70 34 -75 c54 -117 86 -177 95 -177 4 0 83 36 174 80 92 44 169 80 171
80 7 0 39 -61 34 -65 -2 -2 -101 -51 -221 -109 l-219 -105 -48 102 c-26 56
-102 214 -168 351 l-121 249 212 103 c117 56 217 103 223 103 7 1 14 -7 17
-16z m-3859 -93 c25 -12 46 -24 46 -28 0 -4 7 -90 15 -192 8 -102 15 -197 15
-212 0 -16 3 -28 8 -28 4 0 81 61 172 135 90 74 170 135 176 135 7 0 31 -8 53
-19 l42 -18 -219 -172 -219 -171 -57 -134 -57 -134 -42 19 c-23 10 -41 24 -39
31 1 7 26 67 54 133 l51 120 -22 235 c-12 129 -24 254 -28 278 -3 23 -3 42 0
42 2 0 25 -9 51 -20z m3405 -410 c87 -285 96 -344 65 -418 -33 -79 -118 -140
-231 -163 -105 -22 -194 11 -257 94 -27 35 -200 577 -188 589 11 10 82 27 85
20 2 -4 39 -124 82 -266 80 -263 98 -303 148 -340 62 -46 209 -14 259 56 42
60 37 99 -54 394 l-84 272 45 14 c25 8 47 14 47 14 1 -1 38 -120 83 -266z
m-2486 71 c5 -5 -178 -737 -188 -749 -1 -2 -24 2 -49 9 -29 7 -45 16 -43 23 3
7 46 169 96 362 50 192 94 355 96 363 4 10 15 11 43 6 20 -3 40 -10 45 -14z
m243 -35 c1 0 70 -146 154 -324 85 -177 157 -319 160 -315 4 4 25 138 46 297
l38 288 43 -5 c24 -2 46 -6 48 -8 1 -2 -20 -176 -48 -387 l-52 -384 -45 7
c-25 4 -48 10 -52 13 -6 7 -235 480 -285 591 -13 29 -26 51 -29 48 -4 -3 -82
-547 -84 -584 0 -5 -55 -3 -76 3 -20 5 -19 9 32 387 29 210 53 383 53 385 1 3
94 -9 97 -12z m1247 -28 c3 -13 29 -167 57 -343 29 -176 54 -322 56 -324 2 -2
83 9 180 24 148 23 178 26 185 14 8 -13 13 -58 7 -60 -20 -4 -458 -75 -458
-73 0 1 -27 168 -60 371 -33 202 -59 375 -58 383 2 8 19 18 38 21 19 4 38 7
41 8 4 0 9 -9 12 -21z m-163 -52 c0 -30 -4 -34 -31 -40 -17 -3 -103 -6 -190
-6 l-159 0 0 -72 c0 -40 3 -104 7 -142 l6 -69 164 7 163 6 0 -40 0 -40 -97 0
c-54 0 -129 -3 -167 -7 l-68 -6 3 -171 4 -171 -46 -3 -46 -3 -7 278 c-3 153
-9 328 -12 390 l-6 112 83 4 c46 1 155 4 242 5 l157 2 0 -34z"/>
<path d="M10857 12309 c-55 -16 -131 -90 -166 -162 -64 -132 -87 -383 -45
-477 47 -103 116 -150 229 -158 63 -3 76 -1 125 25 101 53 154 157 185 369 22
146 9 229 -46 311 -52 75 -185 119 -282 92z"/>
<path d="M7739 11830 c-36 -11 -209 -101 -209 -109 0 -6 368 -682 375 -690 8
-8 163 86 204 124 120 110 123 263 9 463 -60 104 -108 156 -180 191 -63 32
-138 40 -199 21z"/>
<path d="M6780 11171 c-74 -24 -148 -90 -176 -157 -20 -48 -17 -134 6 -196 25
-67 101 -168 184 -246 161 -150 322 -167 440 -46 50 52 70 99 70 169 1 72 -21
129 -79 210 -62 88 -197 212 -261 242 -58 26 -143 38 -184 24z"/>
<path d="M14005 10271 c-44 -31 -113 -80 -152 -108 l-73 -50 66 -94 c85 -121
101 -138 149 -160 142 -65 305 63 267 209 -13 49 -149 262 -167 261 -5 0 -46
-26 -90 -58z"/>
<path d="M11510 9534 c-487 -60 -961 -87 -1520 -88 -532 0 -1017 27 -1451 79
-241 29 -281 30 -311 6 -48 -38 -59 -121 -33 -245 19 -88 68 -188 153 -305
l68 -95 -38 -155 c-70 -285 -122 -599 -149 -906 -18 -200 -15 -621 5 -810 27
-249 85 -541 144 -716 l18 -56 -52 -87 c-85 -141 -152 -342 -184 -551 -11 -70
-11 -85 3 -111 30 -58 51 -60 305 -30 1053 122 1943 125 3009 9 324 -35 325
-35 344 138 27 236 -16 406 -152 605 l-49 71 30 172 c32 186 73 502 90 696 18
196 24 690 11 885 -19 288 -67 645 -107 806 l-15 62 47 72 c60 93 107 196 137
301 48 166 45 228 -12 262 -36 21 -59 20 -291 -9z m96 -226 c-12 -65 -97 -216
-196 -348 -121 -161 -165 -236 -196 -336 -32 -100 -31 -136 4 -175 23 -26 36
-32 71 -32 58 0 86 29 112 117 21 69 57 152 64 144 5 -5 44 -265 61 -413 22
-188 30 -767 15 -991 -17 -249 -81 -768 -96 -783 -3 -2 -11 2 -19 9 -19 15
-77 16 -105 1 -30 -17 -54 -68 -47 -103 3 -17 48 -80 104 -146 121 -145 153
-192 199 -289 34 -71 37 -85 41 -188 l4 -111 -153 17 c-176 20 -443 43 -704
61 -242 17 -1257 17 -1505 0 -267 -18 -532 -41 -715 -62 -88 -10 -162 -17
-163 -15 -6 5 38 169 47 178 4 4 50 14 100 22 107 16 135 31 151 79 23 69 -42
146 -111 132 -16 -3 -29 -3 -29 1 0 3 24 45 54 92 82 131 99 169 92 206 -9 46
-48 78 -98 81 -40 2 -42 4 -55 45 -23 79 -72 341 -90 489 -22 180 -25 688 -5
880 30 291 115 771 134 752 4 -4 12 -41 17 -80 11 -86 28 -116 75 -132 46 -15
99 7 121 51 29 55 -1 191 -80 365 -20 43 -34 78 -33 79 2 2 20 10 41 19 75 31
84 134 15 176 -18 11 -70 22 -137 30 l-108 12 -30 52 c-36 60 -60 123 -50 132
3 4 73 -1 154 -10 176 -19 419 -40 673 -58 247 -17 1259 -17 1510 0 323 22
740 61 864 81 5 0 6 -14 2 -31z"/>
<path d="M10860 9069 c-87 -12 -118 -26 -135 -60 -24 -45 -19 -87 14 -120 25
-24 37 -29 80 -29 70 0 201 20 232 36 56 28 63 124 12 164 -29 22 -86 25 -203
9z"/>
<path d="M9073 9063 c-32 -6 -73 -59 -73 -94 0 -40 23 -83 53 -96 13 -6 127
-22 254 -34 254 -26 274 -23 306 30 20 34 21 60 5 95 -21 47 -46 54 -265 76
-114 11 -219 22 -233 24 -14 2 -35 1 -47 -1z"/>
<path d="M10260 9010 c-58 -4 -158 -8 -222 -9 -109 -1 -118 -3 -146 -26 -39
-33 -48 -74 -27 -118 27 -58 38 -60 297 -55 263 6 288 12 314 75 12 28 13 42
4 69 -22 65 -58 75 -220 64z"/>
<path d="M10405 8316 c-191 -44 -382 -176 -512 -352 l-45 -62 -147 -4 c-175
-6 -274 -29 -406 -93 -203 -99 -323 -253 -371 -475 -68 -318 99 -727 346 -848
46 -22 69 -26 135 -27 71 0 88 4 150 34 108 53 200 153 305 330 167 283 351
432 599 483 131 27 258 21 356 -18 56 -22 87 -27 155 -28 77 -1 92 2 152 32
216 106 257 352 103 615 -54 91 -164 211 -251 273 -74 53 -189 108 -269 129
-85 23 -227 28 -300 11z m256 -212 c104 -30 189 -84 280 -174 108 -108 159
-202 166 -307 5 -79 -6 -107 -56 -140 -62 -42 -103 -33 -238 48 -234 141 -469
250 -671 310 l-74 22 64 64 c162 164 354 228 529 177z m-686 -435 c142 -30
444 -139 445 -159 0 -3 -27 -12 -60 -19 -142 -32 -301 -124 -436 -253 -103
-99 -154 -166 -247 -323 -80 -134 -122 -186 -186 -227 -56 -35 -101 -36 -156
-4 -145 85 -249 377 -211 592 27 155 106 265 241 336 168 88 379 108 610 57z"/>
<path d="M9578 6154 c-35 -19 -48 -43 -48 -91 0 -30 7 -46 29 -67 33 -32 32
-32 288 -28 162 2 173 3 198 25 18 15 28 36 32 64 5 39 2 46 -30 78 l-35 35
-203 0 c-161 -1 -210 -4 -231 -16z"/>
<path d="M9180 6144 c-8 -1 -76 -8 -150 -15 -132 -12 -136 -13 -167 -44 -55
-55 -40 -131 31 -160 25 -10 57 -10 176 1 262 26 251 23 282 54 40 41 39 97
-3 139 -28 28 -36 31 -92 30 -34 -1 -69 -3 -77 -5z"/>
<path d="M10256 6121 c-46 -48 -31 -138 27 -160 12 -5 109 -16 216 -25 185
-15 196 -15 225 2 67 39 72 126 9 168 -25 17 -58 23 -170 32 -77 7 -171 12
-209 12 -65 0 -73 -2 -98 -29z"/>
<path d="M10961 6064 c-38 -32 -49 -80 -27 -122 22 -43 40 -50 168 -67 126
-17 165 -11 192 30 20 31 20 89 0 120 -19 29 -53 40 -163 54 -120 16 -136 14
-170 -15z"/>
<path d="M5955 10229 c-46 -13 -107 -70 -139 -130 -79 -144 -3 -295 219 -434
201 -125 365 -124 462 3 118 156 55 320 -181 469 -146 92 -260 122 -361 92z"/>
<path d="M6170 5539 c-64 -13 -221 -91 -268 -134 -78 -70 -102 -166 -63 -250
36 -77 95 -115 179 -115 63 0 112 15 207 62 146 73 205 142 205 242 0 133
-120 223 -260 195z"/>
<path d="M13734 5481 c-17 -10 -40 -32 -51 -48 -32 -46 -98 -171 -93 -176 3
-3 62 -37 132 -75 l127 -70 24 41 c109 187 109 263 1 324 -48 28 -99 29 -140
4z"/>
<path d="M6550 4924 c-65 -17 -205 -108 -254 -166 -94 -109 -98 -214 -13 -302
93 -97 213 -81 385 51 155 118 188 232 103 350 -49 67 -129 92 -221 67z"/>
<path d="M6875 4239 l-220 -220 60 -56 c83 -76 126 -97 200 -97 78 1 130 27
216 111 115 110 154 220 112 314 -18 40 -126 169 -142 169 -3 0 -105 -99 -226
-221z"/>
<path d="M7736 3796 c-61 -95 -79 -126 -74 -131 19 -18 176 -105 199 -110 72
-16 149 50 149 127 0 49 -39 94 -134 153 -40 25 -76 45 -79 45 -4 0 -31 -38
-61 -84z"/>
<path d="M7537 3480 l-76 -120 52 -33 c119 -76 146 -89 192 -89 56 0 96 27
124 85 43 88 20 133 -111 217 -51 33 -95 60 -99 60 -3 0 -40 -54 -82 -120z"/>
</g>
</svg>
